<svg width="28" height="28" viewBox="0 0 28 28" fill="none" xmlns="http://www.w3.org/2000/svg">
<path d="M13.5107 0.0422363C6.06686 0.0422363 0.0107422 6.10124 0.0107422 13.5495C0.0107422 20.997 6.06603 27.056 13.5107 27.056C13.9711 27.056 14.3431 26.683 14.3431 26.2241C14.3431 25.7643 13.9711 25.3913 13.5107 25.3913C6.98432 25.3913 1.67624 20.0791 1.67624 13.5503C1.67624 7.0208 6.98432 1.70853 13.5107 1.70853C20.0372 1.70853 25.3444 7.0208 25.3444 13.5503C25.3444 16.2784 23.893 18.9842 21.8159 20.1287C21.0613 20.5438 20.243 20.7497 19.3701 20.758C19.8942 20.4454 20.3479 20.0245 20.6852 19.4919C20.7513 19.3919 20.8389 19.305 20.8819 19.195C21.153 18.5426 21.177 17.8025 21.3406 17.1145C21.5415 16.2329 17.4906 14.5154 17.1385 15.6136C17.0112 16.0212 16.8161 17.3071 16.5607 17.6462C16.3334 17.948 15.773 17.8058 15.4225 17.5073C14.4993 16.72 13.4686 15.5623 12.5643 14.6485L12.566 14.6477C12.5429 14.6237 12.5148 14.5964 12.49 14.5724C12.4643 14.5476 12.4387 14.5212 12.4131 14.4964C11.4989 13.5925 10.3418 12.563 9.55571 11.6368C9.25815 11.2862 9.11434 10.7272 9.41685 10.4989C9.75574 10.2426 11.0418 10.0499 11.4485 9.92172C12.5445 9.57027 10.8286 5.51494 9.9475 5.71754C9.25981 5.8788 8.52005 5.9036 7.8679 6.17401C7.75714 6.22032 7.67118 6.30633 7.57117 6.37248C5.25767 7.8403 4.95928 11.4028 7.21741 14.0564C8.07785 15.0719 8.97548 16.0543 9.89956 17.0136L9.8946 17.0169C9.92022 17.0425 9.94667 17.0665 9.97312 17.0913C9.99792 17.1169 10.0219 17.1426 10.0459 17.1699L10.0508 17.1649C11.0096 18.0894 12.1461 19.4506 13.9926 20.6835C17.8799 23.281 20.8629 22.5557 22.6201 21.5915C25.6536 19.9203 27.0107 16.3504 27.0107 13.5545C27.0116 6.10124 20.9546 0.0422363 13.5107 0.0422363Z" fill="#FFFFFF"/>
</svg>
